<mxfile host="app.diagrams.net" modified="2022-12-04T05:50:21.003Z" agent="5.0 (Macintosh; Intel Mac OS X 10_15_7) AppleWebKit/537.36 (KHTML, like Gecko) Chrome/108.0.0.0 Safari/537.36" etag="UGUEAM0c_FSnCwXquNAr" version="20.6.0" type="github">
  <diagram id="C5RBs43oDa-KdzZeNtuy" name="Page-1">
    <mxGraphModel dx="6701" dy="3286" grid="1" gridSize="10" guides="1" tooltips="1" connect="1" arrows="1" fold="1" page="1" pageScale="1" pageWidth="1654" pageHeight="1169" math="0" shadow="0">
      <root>
        <mxCell id="WIyWlLk6GJQsqaUBKTNV-0" />
        <mxCell id="WIyWlLk6GJQsqaUBKTNV-1" parent="WIyWlLk6GJQsqaUBKTNV-0" />
        <mxCell id="4x0N71IDLHHbBtDgOK0e-248" value="" style="shape=folder;fontStyle=1;spacingTop=10;tabWidth=80;tabHeight=20;tabPosition=left;html=1;fontColor=#000000;" vertex="1" parent="WIyWlLk6GJQsqaUBKTNV-1">
          <mxGeometry x="-220" y="-60" width="620" height="530" as="geometry" />
        </mxCell>
        <mxCell id="4x0N71IDLHHbBtDgOK0e-212" value="package" style="shape=folder;fontStyle=1;spacingTop=10;tabWidth=90;tabHeight=20;tabPosition=left;html=1;fontColor=#000000;" vertex="1" parent="WIyWlLk6GJQsqaUBKTNV-1">
          <mxGeometry x="-250" y="-855" width="480" height="570" as="geometry" />
        </mxCell>
        <mxCell id="4x0N71IDLHHbBtDgOK0e-210" value="" style="shape=folder;fontStyle=1;spacingTop=10;tabWidth=62;tabHeight=20;tabPosition=left;html=1;fontColor=#000000;" vertex="1" parent="WIyWlLk6GJQsqaUBKTNV-1">
          <mxGeometry x="-1081.5" y="-520" width="551.5" height="950" as="geometry" />
        </mxCell>
        <mxCell id="4x0N71IDLHHbBtDgOK0e-208" value="" style="shape=folder;fontStyle=1;spacingTop=10;tabWidth=60;tabHeight=20;tabPosition=left;html=1;fontColor=#000000;" vertex="1" parent="WIyWlLk6GJQsqaUBKTNV-1">
          <mxGeometry x="-1570" y="-570" width="410" height="690" as="geometry" />
        </mxCell>
        <mxCell id="4x0N71IDLHHbBtDgOK0e-206" value="" style="shape=folder;fontStyle=1;spacingTop=10;tabWidth=77;tabHeight=20;tabPosition=left;html=1;fontColor=#000000;" vertex="1" parent="WIyWlLk6GJQsqaUBKTNV-1">
          <mxGeometry x="-1367" y="-850" width="1027" height="230" as="geometry" />
        </mxCell>
        <mxCell id="4x0N71IDLHHbBtDgOK0e-2" value="&lt;&lt;Interface&gt;&gt;&#xa;Renderable" style="swimlane;fontStyle=2;childLayout=stackLayout;horizontal=1;startSize=30;fillColor=#d5e8d4;horizontalStack=0;resizeParent=1;resizeParentMax=0;resizeLast=0;collapsible=1;marginBottom=0;strokeColor=#82b366;" vertex="1" parent="WIyWlLk6GJQsqaUBKTNV-1">
          <mxGeometry x="-1321" y="-800" width="181" height="82" as="geometry">
            <mxRectangle x="80" y="40" width="100" height="30" as="alternateBounds" />
          </mxGeometry>
        </mxCell>
        <mxCell id="4x0N71IDLHHbBtDgOK0e-7" value="+ method: render(Graphics)" style="text;strokeColor=none;fillColor=none;align=left;verticalAlign=top;spacingLeft=4;spacingRight=4;overflow=hidden;rotatable=0;points=[[0,0.5],[1,0.5]];portConstraint=eastwest;" vertex="1" parent="4x0N71IDLHHbBtDgOK0e-2">
          <mxGeometry y="30" width="181" height="26" as="geometry" />
        </mxCell>
        <mxCell id="4x0N71IDLHHbBtDgOK0e-9" value="Objects that must be rendered" style="text;strokeColor=none;fillColor=none;align=left;verticalAlign=top;spacingLeft=4;spacingRight=4;overflow=hidden;rotatable=0;points=[[0,0.5],[1,0.5]];portConstraint=eastwest;" vertex="1" parent="4x0N71IDLHHbBtDgOK0e-2">
          <mxGeometry y="56" width="181" height="26" as="geometry" />
        </mxCell>
        <mxCell id="4x0N71IDLHHbBtDgOK0e-11" value="&lt;&lt;Interface&gt;&gt;&#xa;Tickable" style="swimlane;fontStyle=2;childLayout=stackLayout;horizontal=1;startSize=40;fillColor=#d5e8d4;horizontalStack=0;resizeParent=1;resizeParentMax=0;resizeLast=0;collapsible=1;marginBottom=0;strokeColor=#82b366;" vertex="1" parent="WIyWlLk6GJQsqaUBKTNV-1">
          <mxGeometry x="-1107" y="-790" width="170" height="92" as="geometry" />
        </mxCell>
        <mxCell id="4x0N71IDLHHbBtDgOK0e-12" value="+ method: tick()" style="text;strokeColor=none;fillColor=none;align=left;verticalAlign=top;spacingLeft=4;spacingRight=4;overflow=hidden;rotatable=0;points=[[0,0.5],[1,0.5]];portConstraint=eastwest;" vertex="1" parent="4x0N71IDLHHbBtDgOK0e-11">
          <mxGeometry y="40" width="170" height="26" as="geometry" />
        </mxCell>
        <mxCell id="4x0N71IDLHHbBtDgOK0e-14" value="Objects that must be ticked" style="text;strokeColor=none;fillColor=none;align=left;verticalAlign=top;spacingLeft=4;spacingRight=4;overflow=hidden;rotatable=0;points=[[0,0.5],[1,0.5]];portConstraint=eastwest;" vertex="1" parent="4x0N71IDLHHbBtDgOK0e-11">
          <mxGeometry y="66" width="170" height="26" as="geometry" />
        </mxCell>
        <mxCell id="4x0N71IDLHHbBtDgOK0e-20" value="&lt;&lt;Interface&gt;&gt;&#xa;Container" style="swimlane;fontStyle=2;childLayout=stackLayout;horizontal=1;startSize=40;fillColor=#d5e8d4;horizontalStack=0;resizeParent=1;resizeParentMax=0;resizeLast=0;collapsible=1;marginBottom=0;strokeColor=#82b366;" vertex="1" parent="WIyWlLk6GJQsqaUBKTNV-1">
          <mxGeometry x="-897" y="-790" width="180" height="144" as="geometry" />
        </mxCell>
        <mxCell id="4x0N71IDLHHbBtDgOK0e-21" value="+ method: resetContainer" style="text;strokeColor=none;fillColor=none;align=left;verticalAlign=top;spacingLeft=4;spacingRight=4;overflow=hidden;rotatable=0;points=[[0,0.5],[1,0.5]];portConstraint=eastwest;" vertex="1" parent="4x0N71IDLHHbBtDgOK0e-20">
          <mxGeometry y="40" width="180" height="26" as="geometry" />
        </mxCell>
        <mxCell id="4x0N71IDLHHbBtDgOK0e-22" value="+ method: acceptItem()" style="text;strokeColor=none;fillColor=none;align=left;verticalAlign=top;spacingLeft=4;spacingRight=4;overflow=hidden;rotatable=0;points=[[0,0.5],[1,0.5]];portConstraint=eastwest;" vertex="1" parent="4x0N71IDLHHbBtDgOK0e-20">
          <mxGeometry y="66" width="180" height="26" as="geometry" />
        </mxCell>
        <mxCell id="4x0N71IDLHHbBtDgOK0e-23" value="+ method: discardItem()" style="text;strokeColor=none;fillColor=none;align=left;verticalAlign=top;spacingLeft=4;spacingRight=4;overflow=hidden;rotatable=0;points=[[0,0.5],[1,0.5]];portConstraint=eastwest;" vertex="1" parent="4x0N71IDLHHbBtDgOK0e-20">
          <mxGeometry y="92" width="180" height="26" as="geometry" />
        </mxCell>
        <mxCell id="4x0N71IDLHHbBtDgOK0e-24" value="+ method: discardItem(Tile)" style="text;strokeColor=none;fillColor=none;align=left;verticalAlign=top;spacingLeft=4;spacingRight=4;overflow=hidden;rotatable=0;points=[[0,0.5],[1,0.5]];portConstraint=eastwest;" vertex="1" parent="4x0N71IDLHHbBtDgOK0e-20">
          <mxGeometry y="118" width="180" height="26" as="geometry" />
        </mxCell>
        <mxCell id="4x0N71IDLHHbBtDgOK0e-25" value="&lt;&lt;Interface&gt;&gt;&#xa;Commandable" style="swimlane;fontStyle=2;childLayout=stackLayout;horizontal=1;startSize=40;fillColor=#d5e8d4;horizontalStack=0;resizeParent=1;resizeParentMax=0;resizeLast=0;collapsible=1;marginBottom=0;strokeColor=#82b366;" vertex="1" parent="WIyWlLk6GJQsqaUBKTNV-1">
          <mxGeometry x="-677" y="-790" width="140" height="66" as="geometry" />
        </mxCell>
        <mxCell id="4x0N71IDLHHbBtDgOK0e-27" value="KIV" style="text;strokeColor=none;fillColor=none;align=left;verticalAlign=top;spacingLeft=4;spacingRight=4;overflow=hidden;rotatable=0;points=[[0,0.5],[1,0.5]];portConstraint=eastwest;" vertex="1" parent="4x0N71IDLHHbBtDgOK0e-25">
          <mxGeometry y="40" width="140" height="26" as="geometry" />
        </mxCell>
        <mxCell id="4x0N71IDLHHbBtDgOK0e-29" value="&lt;&lt;Interface&gt;&gt;&#xa;Observable" style="swimlane;fontStyle=2;childLayout=stackLayout;horizontal=1;startSize=40;fillColor=#d5e8d4;horizontalStack=0;resizeParent=1;resizeParentMax=0;resizeLast=0;collapsible=1;marginBottom=0;strokeColor=#82b366;" vertex="1" parent="WIyWlLk6GJQsqaUBKTNV-1">
          <mxGeometry x="-500" y="-790" width="140" height="66" as="geometry" />
        </mxCell>
        <mxCell id="4x0N71IDLHHbBtDgOK0e-30" value="KIV" style="text;strokeColor=none;fillColor=none;align=left;verticalAlign=top;spacingLeft=4;spacingRight=4;overflow=hidden;rotatable=0;points=[[0,0.5],[1,0.5]];portConstraint=eastwest;" vertex="1" parent="4x0N71IDLHHbBtDgOK0e-29">
          <mxGeometry y="40" width="140" height="26" as="geometry" />
        </mxCell>
        <mxCell id="4x0N71IDLHHbBtDgOK0e-124" style="edgeStyle=orthogonalEdgeStyle;rounded=0;orthogonalLoop=1;jettySize=auto;html=1;entryX=0.503;entryY=0.99;entryDx=0;entryDy=0;entryPerimeter=0;fillColor=#e1d5e7;strokeColor=#9673a6;" edge="1" parent="WIyWlLk6GJQsqaUBKTNV-1" source="4x0N71IDLHHbBtDgOK0e-31" target="4x0N71IDLHHbBtDgOK0e-9">
          <mxGeometry relative="1" as="geometry">
            <Array as="points">
              <mxPoint x="-1361" y="-570" />
              <mxPoint x="-1230" y="-570" />
            </Array>
          </mxGeometry>
        </mxCell>
        <mxCell id="4x0N71IDLHHbBtDgOK0e-182" style="edgeStyle=orthogonalEdgeStyle;rounded=0;orthogonalLoop=1;jettySize=auto;html=1;entryX=0;entryY=0.13;entryDx=0;entryDy=0;entryPerimeter=0;fillColor=#dae8fc;strokeColor=#6c8ebf;" edge="1" parent="WIyWlLk6GJQsqaUBKTNV-1" source="4x0N71IDLHHbBtDgOK0e-31" target="4x0N71IDLHHbBtDgOK0e-155">
          <mxGeometry relative="1" as="geometry" />
        </mxCell>
        <mxCell id="4x0N71IDLHHbBtDgOK0e-31" value="Tile" style="swimlane;fontStyle=1;align=center;verticalAlign=top;childLayout=stackLayout;horizontal=1;startSize=26;horizontalStack=0;resizeParent=1;resizeParentMax=0;resizeLast=0;collapsible=1;marginBottom=0;fillColor=#ffe6cc;strokeColor=#d79b00;" vertex="1" parent="WIyWlLk6GJQsqaUBKTNV-1">
          <mxGeometry x="-1537" y="-520" width="352" height="610" as="geometry" />
        </mxCell>
        <mxCell id="4x0N71IDLHHbBtDgOK0e-44" value="+ table: HashMap" style="text;strokeColor=none;fillColor=none;align=left;verticalAlign=top;spacingLeft=4;spacingRight=4;overflow=hidden;rotatable=0;points=[[0,0.5],[1,0.5]];portConstraint=eastwest;" vertex="1" parent="4x0N71IDLHHbBtDgOK0e-31">
          <mxGeometry y="26" width="352" height="26" as="geometry" />
        </mxCell>
        <mxCell id="4x0N71IDLHHbBtDgOK0e-45" value="+ maxHeight: int" style="text;strokeColor=none;fillColor=none;align=left;verticalAlign=top;spacingLeft=4;spacingRight=4;overflow=hidden;rotatable=0;points=[[0,0.5],[1,0.5]];portConstraint=eastwest;" vertex="1" parent="4x0N71IDLHHbBtDgOK0e-31">
          <mxGeometry y="52" width="352" height="26" as="geometry" />
        </mxCell>
        <mxCell id="4x0N71IDLHHbBtDgOK0e-46" value="+ maxWidth: int" style="text;strokeColor=none;fillColor=none;align=left;verticalAlign=top;spacingLeft=4;spacingRight=4;overflow=hidden;rotatable=0;points=[[0,0.5],[1,0.5]];portConstraint=eastwest;" vertex="1" parent="4x0N71IDLHHbBtDgOK0e-31">
          <mxGeometry y="78" width="352" height="26" as="geometry" />
        </mxCell>
        <mxCell id="4x0N71IDLHHbBtDgOK0e-47" value="+ backTile: BufferedImage" style="text;strokeColor=none;fillColor=none;align=left;verticalAlign=top;spacingLeft=4;spacingRight=4;overflow=hidden;rotatable=0;points=[[0,0.5],[1,0.5]];portConstraint=eastwest;" vertex="1" parent="4x0N71IDLHHbBtDgOK0e-31">
          <mxGeometry y="104" width="352" height="26" as="geometry" />
        </mxCell>
        <mxCell id="4x0N71IDLHHbBtDgOK0e-32" value="+ class: String" style="text;strokeColor=none;fillColor=none;align=left;verticalAlign=top;spacingLeft=4;spacingRight=4;overflow=hidden;rotatable=0;points=[[0,0.5],[1,0.5]];portConstraint=eastwest;" vertex="1" parent="4x0N71IDLHHbBtDgOK0e-31">
          <mxGeometry y="130" width="352" height="26" as="geometry" />
        </mxCell>
        <mxCell id="4x0N71IDLHHbBtDgOK0e-35" value="+ subclass: String" style="text;strokeColor=none;fillColor=none;align=left;verticalAlign=top;spacingLeft=4;spacingRight=4;overflow=hidden;rotatable=0;points=[[0,0.5],[1,0.5]];portConstraint=eastwest;" vertex="1" parent="4x0N71IDLHHbBtDgOK0e-31">
          <mxGeometry y="156" width="352" height="28" as="geometry" />
        </mxCell>
        <mxCell id="4x0N71IDLHHbBtDgOK0e-36" value="+ value: String" style="text;strokeColor=none;fillColor=none;align=left;verticalAlign=top;spacingLeft=4;spacingRight=4;overflow=hidden;rotatable=0;points=[[0,0.5],[1,0.5]];portConstraint=eastwest;" vertex="1" parent="4x0N71IDLHHbBtDgOK0e-31">
          <mxGeometry y="184" width="352" height="28" as="geometry" />
        </mxCell>
        <mxCell id="4x0N71IDLHHbBtDgOK0e-37" value="+ owner: Container" style="text;strokeColor=none;fillColor=none;align=left;verticalAlign=top;spacingLeft=4;spacingRight=4;overflow=hidden;rotatable=0;points=[[0,0.5],[1,0.5]];portConstraint=eastwest;" vertex="1" parent="4x0N71IDLHHbBtDgOK0e-31">
          <mxGeometry y="212" width="352" height="28" as="geometry" />
        </mxCell>
        <mxCell id="4x0N71IDLHHbBtDgOK0e-39" value="+ rotationDegrees: int" style="text;strokeColor=none;fillColor=none;align=left;verticalAlign=top;spacingLeft=4;spacingRight=4;overflow=hidden;rotatable=0;points=[[0,0.5],[1,0.5]];portConstraint=eastwest;" vertex="1" parent="4x0N71IDLHHbBtDgOK0e-31">
          <mxGeometry y="240" width="352" height="28" as="geometry" />
        </mxCell>
        <mxCell id="4x0N71IDLHHbBtDgOK0e-40" value="+ startingX: int" style="text;strokeColor=none;fillColor=none;align=left;verticalAlign=top;spacingLeft=4;spacingRight=4;overflow=hidden;rotatable=0;points=[[0,0.5],[1,0.5]];portConstraint=eastwest;" vertex="1" parent="4x0N71IDLHHbBtDgOK0e-31">
          <mxGeometry y="268" width="352" height="28" as="geometry" />
        </mxCell>
        <mxCell id="4x0N71IDLHHbBtDgOK0e-41" value="+ startingY: int" style="text;strokeColor=none;fillColor=none;align=left;verticalAlign=top;spacingLeft=4;spacingRight=4;overflow=hidden;rotatable=0;points=[[0,0.5],[1,0.5]];portConstraint=eastwest;" vertex="1" parent="4x0N71IDLHHbBtDgOK0e-31">
          <mxGeometry y="296" width="352" height="28" as="geometry" />
        </mxCell>
        <mxCell id="4x0N71IDLHHbBtDgOK0e-42" value="+ movingX: int" style="text;strokeColor=none;fillColor=none;align=left;verticalAlign=top;spacingLeft=4;spacingRight=4;overflow=hidden;rotatable=0;points=[[0,0.5],[1,0.5]];portConstraint=eastwest;" vertex="1" parent="4x0N71IDLHHbBtDgOK0e-31">
          <mxGeometry y="324" width="352" height="28" as="geometry" />
        </mxCell>
        <mxCell id="4x0N71IDLHHbBtDgOK0e-43" value="+ movingY: int" style="text;strokeColor=none;fillColor=none;align=left;verticalAlign=top;spacingLeft=4;spacingRight=4;overflow=hidden;rotatable=0;points=[[0,0.5],[1,0.5]];portConstraint=eastwest;" vertex="1" parent="4x0N71IDLHHbBtDgOK0e-31">
          <mxGeometry y="352" width="352" height="28" as="geometry" />
        </mxCell>
        <mxCell id="4x0N71IDLHHbBtDgOK0e-33" value="" style="line;strokeWidth=1;fillColor=none;align=left;verticalAlign=middle;spacingTop=-1;spacingLeft=3;spacingRight=3;rotatable=0;labelPosition=right;points=[];portConstraint=eastwest;strokeColor=inherit;" vertex="1" parent="4x0N71IDLHHbBtDgOK0e-31">
          <mxGeometry y="380" width="352" height="8" as="geometry" />
        </mxCell>
        <mxCell id="4x0N71IDLHHbBtDgOK0e-34" value="+ render(Graphics): void" style="text;strokeColor=none;fillColor=none;align=left;verticalAlign=top;spacingLeft=4;spacingRight=4;overflow=hidden;rotatable=0;points=[[0,0.5],[1,0.5]];portConstraint=eastwest;" vertex="1" parent="4x0N71IDLHHbBtDgOK0e-31">
          <mxGeometry y="388" width="352" height="26" as="geometry" />
        </mxCell>
        <mxCell id="4x0N71IDLHHbBtDgOK0e-48" value="+ getters for all fields: T" style="text;strokeColor=none;fillColor=none;align=left;verticalAlign=top;spacingLeft=4;spacingRight=4;overflow=hidden;rotatable=0;points=[[0,0.5],[1,0.5]];portConstraint=eastwest;" vertex="1" parent="4x0N71IDLHHbBtDgOK0e-31">
          <mxGeometry y="414" width="352" height="26" as="geometry" />
        </mxCell>
        <mxCell id="4x0N71IDLHHbBtDgOK0e-49" value="+ setters for owner, rotationDegrees, &#xa;   startingX/Y, movingX/Y: void" style="text;strokeColor=none;fillColor=none;align=left;verticalAlign=top;spacingLeft=4;spacingRight=4;overflow=hidden;rotatable=0;points=[[0,0.5],[1,0.5]];portConstraint=eastwest;" vertex="1" parent="4x0N71IDLHHbBtDgOK0e-31">
          <mxGeometry y="440" width="352" height="50" as="geometry" />
        </mxCell>
        <mxCell id="4x0N71IDLHHbBtDgOK0e-50" value="+ compareTo [overridden]: int" style="text;strokeColor=none;fillColor=none;align=left;verticalAlign=top;spacingLeft=4;spacingRight=4;overflow=hidden;rotatable=0;points=[[0,0.5],[1,0.5]];portConstraint=eastwest;" vertex="1" parent="4x0N71IDLHHbBtDgOK0e-31">
          <mxGeometry y="490" width="352" height="30" as="geometry" />
        </mxCell>
        <mxCell id="4x0N71IDLHHbBtDgOK0e-51" value="+ equals(Object) [overridden]: boolean" style="text;strokeColor=none;fillColor=none;align=left;verticalAlign=top;spacingLeft=4;spacingRight=4;overflow=hidden;rotatable=0;points=[[0,0.5],[1,0.5]];portConstraint=eastwest;" vertex="1" parent="4x0N71IDLHHbBtDgOK0e-31">
          <mxGeometry y="520" width="352" height="30" as="geometry" />
        </mxCell>
        <mxCell id="4x0N71IDLHHbBtDgOK0e-52" value="+ toString(void) [overridden]: String" style="text;strokeColor=none;fillColor=none;align=left;verticalAlign=top;spacingLeft=4;spacingRight=4;overflow=hidden;rotatable=0;points=[[0,0.5],[1,0.5]];portConstraint=eastwest;" vertex="1" parent="4x0N71IDLHHbBtDgOK0e-31">
          <mxGeometry y="550" width="352" height="30" as="geometry" />
        </mxCell>
        <mxCell id="4x0N71IDLHHbBtDgOK0e-53" value="+ checkValidConfiguration(String, String, String) : boolean" style="text;strokeColor=none;fillColor=none;align=left;verticalAlign=top;spacingLeft=4;spacingRight=4;overflow=hidden;rotatable=0;points=[[0,0.5],[1,0.5]];portConstraint=eastwest;" vertex="1" parent="4x0N71IDLHHbBtDgOK0e-31">
          <mxGeometry y="580" width="352" height="30" as="geometry" />
        </mxCell>
        <mxCell id="4x0N71IDLHHbBtDgOK0e-130" style="edgeStyle=orthogonalEdgeStyle;rounded=0;orthogonalLoop=1;jettySize=auto;html=1;fillColor=#e1d5e7;strokeColor=#9673a6;entryX=0.509;entryY=0.969;entryDx=0;entryDy=0;entryPerimeter=0;" edge="1" parent="WIyWlLk6GJQsqaUBKTNV-1" source="4x0N71IDLHHbBtDgOK0e-125" target="4x0N71IDLHHbBtDgOK0e-24">
          <mxGeometry relative="1" as="geometry">
            <mxPoint x="-787" y="-660" as="targetPoint" />
            <Array as="points">
              <mxPoint x="-805" y="-560" />
            </Array>
          </mxGeometry>
        </mxCell>
        <mxCell id="4x0N71IDLHHbBtDgOK0e-131" style="edgeStyle=orthogonalEdgeStyle;rounded=0;orthogonalLoop=1;jettySize=auto;html=1;fillColor=#e1d5e7;strokeColor=#9673a6;" edge="1" parent="WIyWlLk6GJQsqaUBKTNV-1">
          <mxGeometry relative="1" as="geometry">
            <mxPoint x="-804.989247311828" y="-446" as="sourcePoint" />
            <mxPoint x="-428" y="-724" as="targetPoint" />
            <Array as="points">
              <mxPoint x="-805" y="-546" />
              <mxPoint x="-428" y="-546" />
            </Array>
          </mxGeometry>
        </mxCell>
        <mxCell id="4x0N71IDLHHbBtDgOK0e-125" value="Player" style="swimlane;fontStyle=1;align=center;verticalAlign=top;childLayout=stackLayout;horizontal=1;startSize=26;horizontalStack=0;resizeParent=1;resizeParentMax=0;resizeLast=0;collapsible=1;marginBottom=0;fillColor=#f8cecc;strokeColor=#b85450;" vertex="1" parent="WIyWlLk6GJQsqaUBKTNV-1">
          <mxGeometry x="-993" y="-460" width="360" height="606" as="geometry" />
        </mxCell>
        <mxCell id="4x0N71IDLHHbBtDgOK0e-126" value="+ startingXPosition: int" style="text;strokeColor=none;fillColor=none;align=left;verticalAlign=top;spacingLeft=4;spacingRight=4;overflow=hidden;rotatable=0;points=[[0,0.5],[1,0.5]];portConstraint=eastwest;" vertex="1" parent="4x0N71IDLHHbBtDgOK0e-125">
          <mxGeometry y="26" width="360" height="26" as="geometry" />
        </mxCell>
        <mxCell id="4x0N71IDLHHbBtDgOK0e-132" value="+ movingXPosition: int" style="text;strokeColor=none;fillColor=none;align=left;verticalAlign=top;spacingLeft=4;spacingRight=4;overflow=hidden;rotatable=0;points=[[0,0.5],[1,0.5]];portConstraint=eastwest;" vertex="1" parent="4x0N71IDLHHbBtDgOK0e-125">
          <mxGeometry y="52" width="360" height="26" as="geometry" />
        </mxCell>
        <mxCell id="4x0N71IDLHHbBtDgOK0e-133" value="+ startingYPosition: int" style="text;strokeColor=none;fillColor=none;align=left;verticalAlign=top;spacingLeft=4;spacingRight=4;overflow=hidden;rotatable=0;points=[[0,0.5],[1,0.5]];portConstraint=eastwest;" vertex="1" parent="4x0N71IDLHHbBtDgOK0e-125">
          <mxGeometry y="78" width="360" height="26" as="geometry" />
        </mxCell>
        <mxCell id="4x0N71IDLHHbBtDgOK0e-134" value="+ movingYPosition: int" style="text;strokeColor=none;fillColor=none;align=left;verticalAlign=top;spacingLeft=4;spacingRight=4;overflow=hidden;rotatable=0;points=[[0,0.5],[1,0.5]];portConstraint=eastwest;" vertex="1" parent="4x0N71IDLHHbBtDgOK0e-125">
          <mxGeometry y="104" width="360" height="26" as="geometry" />
        </mxCell>
        <mxCell id="4x0N71IDLHHbBtDgOK0e-150" value="+ rotationDegrees: int" style="text;strokeColor=none;fillColor=none;align=left;verticalAlign=top;spacingLeft=4;spacingRight=4;overflow=hidden;rotatable=0;points=[[0,0.5],[1,0.5]];portConstraint=eastwest;" vertex="1" parent="4x0N71IDLHHbBtDgOK0e-125">
          <mxGeometry y="130" width="360" height="26" as="geometry" />
        </mxCell>
        <mxCell id="4x0N71IDLHHbBtDgOK0e-135" value="+ name: String" style="text;strokeColor=none;fillColor=none;align=left;verticalAlign=top;spacingLeft=4;spacingRight=4;overflow=hidden;rotatable=0;points=[[0,0.5],[1,0.5]];portConstraint=eastwest;" vertex="1" parent="4x0N71IDLHHbBtDgOK0e-125">
          <mxGeometry y="156" width="360" height="26" as="geometry" />
        </mxCell>
        <mxCell id="4x0N71IDLHHbBtDgOK0e-136" value="+ strategy: Strategy" style="text;strokeColor=none;fillColor=none;align=left;verticalAlign=top;spacingLeft=4;spacingRight=4;overflow=hidden;rotatable=0;points=[[0,0.5],[1,0.5]];portConstraint=eastwest;" vertex="1" parent="4x0N71IDLHHbBtDgOK0e-125">
          <mxGeometry y="182" width="360" height="26" as="geometry" />
        </mxCell>
        <mxCell id="4x0N71IDLHHbBtDgOK0e-137" value="+ score: int" style="text;strokeColor=none;fillColor=none;align=left;verticalAlign=top;spacingLeft=4;spacingRight=4;overflow=hidden;rotatable=0;points=[[0,0.5],[1,0.5]];portConstraint=eastwest;" vertex="1" parent="4x0N71IDLHHbBtDgOK0e-125">
          <mxGeometry y="208" width="360" height="26" as="geometry" />
        </mxCell>
        <mxCell id="4x0N71IDLHHbBtDgOK0e-138" value="+ playerPublicHand: LinkedList&lt;Tile&gt;" style="text;strokeColor=none;fillColor=none;align=left;verticalAlign=top;spacingLeft=4;spacingRight=4;overflow=hidden;rotatable=0;points=[[0,0.5],[1,0.5]];portConstraint=eastwest;" vertex="1" parent="4x0N71IDLHHbBtDgOK0e-125">
          <mxGeometry y="234" width="360" height="26" as="geometry" />
        </mxCell>
        <mxCell id="4x0N71IDLHHbBtDgOK0e-139" value="+ playerPrivateHand: LinkedList&lt;Tile&gt;" style="text;strokeColor=none;fillColor=none;align=left;verticalAlign=top;spacingLeft=4;spacingRight=4;overflow=hidden;rotatable=0;points=[[0,0.5],[1,0.5]];portConstraint=eastwest;" vertex="1" parent="4x0N71IDLHHbBtDgOK0e-125">
          <mxGeometry y="260" width="360" height="26" as="geometry" />
        </mxCell>
        <mxCell id="4x0N71IDLHHbBtDgOK0e-140" value="+ board: Board" style="text;strokeColor=none;fillColor=none;align=left;verticalAlign=top;spacingLeft=4;spacingRight=4;overflow=hidden;rotatable=0;points=[[0,0.5],[1,0.5]];portConstraint=eastwest;" vertex="1" parent="4x0N71IDLHHbBtDgOK0e-125">
          <mxGeometry y="286" width="360" height="26" as="geometry" />
        </mxCell>
        <mxCell id="4x0N71IDLHHbBtDgOK0e-141" value="+ TILE_X_SPACING: int; 50" style="text;strokeColor=none;fillColor=none;align=left;verticalAlign=top;spacingLeft=4;spacingRight=4;overflow=hidden;rotatable=0;points=[[0,0.5],[1,0.5]];portConstraint=eastwest;" vertex="1" parent="4x0N71IDLHHbBtDgOK0e-125">
          <mxGeometry y="312" width="360" height="26" as="geometry" />
        </mxCell>
        <mxCell id="4x0N71IDLHHbBtDgOK0e-142" value="+ TILE_Y_SPACING: int; 30" style="text;strokeColor=none;fillColor=none;align=left;verticalAlign=top;spacingLeft=4;spacingRight=4;overflow=hidden;rotatable=0;points=[[0,0.5],[1,0.5]];portConstraint=eastwest;" vertex="1" parent="4x0N71IDLHHbBtDgOK0e-125">
          <mxGeometry y="338" width="360" height="26" as="geometry" />
        </mxCell>
        <mxCell id="4x0N71IDLHHbBtDgOK0e-127" value="" style="line;strokeWidth=1;fillColor=none;align=left;verticalAlign=middle;spacingTop=-1;spacingLeft=3;spacingRight=3;rotatable=0;labelPosition=right;points=[];portConstraint=eastwest;strokeColor=inherit;" vertex="1" parent="4x0N71IDLHHbBtDgOK0e-125">
          <mxGeometry y="364" width="360" height="8" as="geometry" />
        </mxCell>
        <mxCell id="4x0N71IDLHHbBtDgOK0e-128" value="+ resetContainer(void): void" style="text;strokeColor=none;fillColor=none;align=left;verticalAlign=top;spacingLeft=4;spacingRight=4;overflow=hidden;rotatable=0;points=[[0,0.5],[1,0.5]];portConstraint=eastwest;" vertex="1" parent="4x0N71IDLHHbBtDgOK0e-125">
          <mxGeometry y="372" width="360" height="26" as="geometry" />
        </mxCell>
        <mxCell id="4x0N71IDLHHbBtDgOK0e-148" value="+ acceptItem(Tile): void" style="text;strokeColor=none;fillColor=none;align=left;verticalAlign=top;spacingLeft=4;spacingRight=4;overflow=hidden;rotatable=0;points=[[0,0.5],[1,0.5]];portConstraint=eastwest;" vertex="1" parent="4x0N71IDLHHbBtDgOK0e-125">
          <mxGeometry y="398" width="360" height="26" as="geometry" />
        </mxCell>
        <mxCell id="4x0N71IDLHHbBtDgOK0e-147" value="+ discardItem(void): Tile " style="text;strokeColor=none;fillColor=none;align=left;verticalAlign=top;spacingLeft=4;spacingRight=4;overflow=hidden;rotatable=0;points=[[0,0.5],[1,0.5]];portConstraint=eastwest;" vertex="1" parent="4x0N71IDLHHbBtDgOK0e-125">
          <mxGeometry y="424" width="360" height="26" as="geometry" />
        </mxCell>
        <mxCell id="4x0N71IDLHHbBtDgOK0e-146" value="+ discardItem(Tile): Tile " style="text;strokeColor=none;fillColor=none;align=left;verticalAlign=top;spacingLeft=4;spacingRight=4;overflow=hidden;rotatable=0;points=[[0,0.5],[1,0.5]];portConstraint=eastwest;" vertex="1" parent="4x0N71IDLHHbBtDgOK0e-125">
          <mxGeometry y="450" width="360" height="26" as="geometry" />
        </mxCell>
        <mxCell id="4x0N71IDLHHbBtDgOK0e-145" value="+ sortHand(void): void" style="text;strokeColor=none;fillColor=none;align=left;verticalAlign=top;spacingLeft=4;spacingRight=4;overflow=hidden;rotatable=0;points=[[0,0.5],[1,0.5]];portConstraint=eastwest;" vertex="1" parent="4x0N71IDLHHbBtDgOK0e-125">
          <mxGeometry y="476" width="360" height="26" as="geometry" />
        </mxCell>
        <mxCell id="4x0N71IDLHHbBtDgOK0e-143" value="+ rotateAllTiles(int): void" style="text;strokeColor=none;fillColor=none;align=left;verticalAlign=top;spacingLeft=4;spacingRight=4;overflow=hidden;rotatable=0;points=[[0,0.5],[1,0.5]];portConstraint=eastwest;" vertex="1" parent="4x0N71IDLHHbBtDgOK0e-125">
          <mxGeometry y="502" width="360" height="26" as="geometry" />
        </mxCell>
        <mxCell id="4x0N71IDLHHbBtDgOK0e-144" value="+ setNextAvailableTilePosition(Tile): void" style="text;strokeColor=none;fillColor=none;align=left;verticalAlign=top;spacingLeft=4;spacingRight=4;overflow=hidden;rotatable=0;points=[[0,0.5],[1,0.5]];portConstraint=eastwest;" vertex="1" parent="4x0N71IDLHHbBtDgOK0e-125">
          <mxGeometry y="528" width="360" height="26" as="geometry" />
        </mxCell>
        <mxCell id="4x0N71IDLHHbBtDgOK0e-149" value="+ getters for position, name and rotationDegrees" style="text;strokeColor=none;fillColor=none;align=left;verticalAlign=top;spacingLeft=4;spacingRight=4;overflow=hidden;rotatable=0;points=[[0,0.5],[1,0.5]];portConstraint=eastwest;" vertex="1" parent="4x0N71IDLHHbBtDgOK0e-125">
          <mxGeometry y="554" width="360" height="26" as="geometry" />
        </mxCell>
        <mxCell id="4x0N71IDLHHbBtDgOK0e-151" value="+ setters for position, name and rotationDegrees" style="text;strokeColor=none;fillColor=none;align=left;verticalAlign=top;spacingLeft=4;spacingRight=4;overflow=hidden;rotatable=0;points=[[0,0.5],[1,0.5]];portConstraint=eastwest;" vertex="1" parent="4x0N71IDLHHbBtDgOK0e-125">
          <mxGeometry y="580" width="360" height="26" as="geometry" />
        </mxCell>
        <mxCell id="4x0N71IDLHHbBtDgOK0e-129" value="&lt;b&gt;&lt;u&gt;Legend&lt;br&gt;&lt;/u&gt;&lt;/b&gt;&lt;br&gt;&lt;font color=&quot;#00cc00&quot;&gt;Green&lt;/font&gt; - Interface&lt;br&gt;&lt;font color=&quot;#ff8000&quot;&gt;Orange&lt;/font&gt; - Concrete Class&lt;br&gt;&lt;font color=&quot;#cc0000&quot;&gt;Red&lt;/font&gt; - Abstract Class&lt;br&gt;&lt;font color=&quot;#0066cc&quot;&gt;Blue&lt;/font&gt; - &amp;lt;Contains&amp;gt; relationship&lt;br&gt;&lt;font color=&quot;#6600cc&quot;&gt;Purple&lt;/font&gt; - &amp;lt;Implements&amp;gt; relationship&lt;br&gt;Black - &amp;lt;Extends&amp;gt; relationship" style="html=1;" vertex="1" parent="WIyWlLk6GJQsqaUBKTNV-1">
          <mxGeometry x="-1670" y="-1070" width="247" height="160" as="geometry" />
        </mxCell>
        <mxCell id="4x0N71IDLHHbBtDgOK0e-162" style="edgeStyle=orthogonalEdgeStyle;rounded=0;orthogonalLoop=1;jettySize=auto;html=1;entryX=0.519;entryY=1.007;entryDx=0;entryDy=0;entryPerimeter=0;" edge="1" parent="WIyWlLk6GJQsqaUBKTNV-1" source="4x0N71IDLHHbBtDgOK0e-152" target="4x0N71IDLHHbBtDgOK0e-151">
          <mxGeometry relative="1" as="geometry" />
        </mxCell>
        <mxCell id="4x0N71IDLHHbBtDgOK0e-152" value="Human" style="swimlane;fontStyle=1;align=center;verticalAlign=top;childLayout=stackLayout;horizontal=1;startSize=26;horizontalStack=0;resizeParent=1;resizeParentMax=0;resizeLast=0;collapsible=1;marginBottom=0;fillColor=#ffe6cc;strokeColor=#d79b00;" vertex="1" parent="WIyWlLk6GJQsqaUBKTNV-1">
          <mxGeometry x="-1047" y="270" width="200" height="80" as="geometry" />
        </mxCell>
        <mxCell id="4x0N71IDLHHbBtDgOK0e-154" value="" style="line;strokeWidth=1;fillColor=none;align=left;verticalAlign=middle;spacingTop=-1;spacingLeft=3;spacingRight=3;rotatable=0;labelPosition=right;points=[];portConstraint=eastwest;strokeColor=inherit;" vertex="1" parent="4x0N71IDLHHbBtDgOK0e-152">
          <mxGeometry y="26" width="200" height="8" as="geometry" />
        </mxCell>
        <mxCell id="4x0N71IDLHHbBtDgOK0e-155" value="All attrs and methods &#xa;inherited" style="text;strokeColor=none;fillColor=none;align=left;verticalAlign=top;spacingLeft=4;spacingRight=4;overflow=hidden;rotatable=0;points=[[0,0.5],[1,0.5]];portConstraint=eastwest;" vertex="1" parent="4x0N71IDLHHbBtDgOK0e-152">
          <mxGeometry y="34" width="200" height="46" as="geometry" />
        </mxCell>
        <mxCell id="4x0N71IDLHHbBtDgOK0e-173" style="edgeStyle=orthogonalEdgeStyle;rounded=0;orthogonalLoop=1;jettySize=auto;html=1;entryX=0.517;entryY=0.983;entryDx=0;entryDy=0;entryPerimeter=0;" edge="1" parent="WIyWlLk6GJQsqaUBKTNV-1" source="4x0N71IDLHHbBtDgOK0e-157" target="4x0N71IDLHHbBtDgOK0e-151">
          <mxGeometry relative="1" as="geometry">
            <Array as="points">
              <mxPoint x="-667" y="208" />
              <mxPoint x="-807" y="208" />
            </Array>
          </mxGeometry>
        </mxCell>
        <mxCell id="4x0N71IDLHHbBtDgOK0e-157" value="AI" style="swimlane;fontStyle=1;align=center;verticalAlign=top;childLayout=stackLayout;horizontal=1;startSize=26;horizontalStack=0;resizeParent=1;resizeParentMax=0;resizeLast=0;collapsible=1;marginBottom=0;fillColor=#ffe6cc;strokeColor=#d79b00;" vertex="1" parent="WIyWlLk6GJQsqaUBKTNV-1">
          <mxGeometry x="-767" y="270" width="200" height="130" as="geometry" />
        </mxCell>
        <mxCell id="4x0N71IDLHHbBtDgOK0e-158" value="All attrs inherited" style="text;strokeColor=none;fillColor=none;align=left;verticalAlign=top;spacingLeft=4;spacingRight=4;overflow=hidden;rotatable=0;points=[[0,0.5],[1,0.5]];portConstraint=eastwest;" vertex="1" parent="4x0N71IDLHHbBtDgOK0e-157">
          <mxGeometry y="26" width="200" height="26" as="geometry" />
        </mxCell>
        <mxCell id="4x0N71IDLHHbBtDgOK0e-159" value="" style="line;strokeWidth=1;fillColor=none;align=left;verticalAlign=middle;spacingTop=-1;spacingLeft=3;spacingRight=3;rotatable=0;labelPosition=right;points=[];portConstraint=eastwest;strokeColor=inherit;" vertex="1" parent="4x0N71IDLHHbBtDgOK0e-157">
          <mxGeometry y="52" width="200" height="8" as="geometry" />
        </mxCell>
        <mxCell id="4x0N71IDLHHbBtDgOK0e-160" value="+ sortHand(void) [override]" style="text;strokeColor=none;fillColor=none;align=left;verticalAlign=top;spacingLeft=4;spacingRight=4;overflow=hidden;rotatable=0;points=[[0,0.5],[1,0.5]];portConstraint=eastwest;" vertex="1" parent="4x0N71IDLHHbBtDgOK0e-157">
          <mxGeometry y="60" width="200" height="26" as="geometry" />
        </mxCell>
        <mxCell id="4x0N71IDLHHbBtDgOK0e-174" value="+ setNextAvailableTilePosition(Tile) &#xa;[override]" style="text;strokeColor=none;fillColor=none;align=left;verticalAlign=top;spacingLeft=4;spacingRight=4;overflow=hidden;rotatable=0;points=[[0,0.5],[1,0.5]];portConstraint=eastwest;" vertex="1" parent="4x0N71IDLHHbBtDgOK0e-157">
          <mxGeometry y="86" width="200" height="44" as="geometry" />
        </mxCell>
        <mxCell id="4x0N71IDLHHbBtDgOK0e-178" value="&lt;&lt;Interface&gt;&gt;&#xa;Strategy" style="swimlane;fontStyle=2;childLayout=stackLayout;horizontal=1;startSize=40;fillColor=#d5e8d4;horizontalStack=0;resizeParent=1;resizeParentMax=0;resizeLast=0;collapsible=1;marginBottom=0;strokeColor=#82b366;" vertex="1" parent="WIyWlLk6GJQsqaUBKTNV-1">
          <mxGeometry x="-110" y="-755" width="200" height="118" as="geometry" />
        </mxCell>
        <mxCell id="4x0N71IDLHHbBtDgOK0e-179" value="+ onTileReceive(List&lt;Tile&gt;)" style="text;strokeColor=none;fillColor=none;align=left;verticalAlign=top;spacingLeft=4;spacingRight=4;overflow=hidden;rotatable=0;points=[[0,0.5],[1,0.5]];portConstraint=eastwest;" vertex="1" parent="4x0N71IDLHHbBtDgOK0e-178">
          <mxGeometry y="40" width="200" height="26" as="geometry" />
        </mxCell>
        <mxCell id="4x0N71IDLHHbBtDgOK0e-180" value="+ pollDiscardTile(List&lt;Tile&gt;)" style="text;strokeColor=none;fillColor=none;align=left;verticalAlign=top;spacingLeft=4;spacingRight=4;overflow=hidden;rotatable=0;points=[[0,0.5],[1,0.5]];portConstraint=eastwest;" vertex="1" parent="4x0N71IDLHHbBtDgOK0e-178">
          <mxGeometry y="66" width="200" height="26" as="geometry" />
        </mxCell>
        <mxCell id="4x0N71IDLHHbBtDgOK0e-181" value="+ onTileDiscard(List&lt;Tile&gt;)" style="text;strokeColor=none;fillColor=none;align=left;verticalAlign=top;spacingLeft=4;spacingRight=4;overflow=hidden;rotatable=0;points=[[0,0.5],[1,0.5]];portConstraint=eastwest;" vertex="1" parent="4x0N71IDLHHbBtDgOK0e-178">
          <mxGeometry y="92" width="200" height="26" as="geometry" />
        </mxCell>
        <mxCell id="4x0N71IDLHHbBtDgOK0e-183" style="edgeStyle=orthogonalEdgeStyle;rounded=0;orthogonalLoop=1;jettySize=auto;html=1;fillColor=#dae8fc;strokeColor=#6c8ebf;" edge="1" parent="WIyWlLk6GJQsqaUBKTNV-1">
          <mxGeometry relative="1" as="geometry">
            <mxPoint x="-1361" y="90" as="sourcePoint" />
            <mxPoint x="-667" y="400" as="targetPoint" />
            <Array as="points">
              <mxPoint x="-1361" y="470" />
              <mxPoint x="-667" y="470" />
            </Array>
          </mxGeometry>
        </mxCell>
        <mxCell id="4x0N71IDLHHbBtDgOK0e-186" value="contained by" style="text;html=1;align=center;verticalAlign=middle;resizable=0;points=[];autosize=1;strokeColor=none;fillColor=none;" vertex="1" parent="WIyWlLk6GJQsqaUBKTNV-1">
          <mxGeometry x="-1367" y="150" width="90" height="30" as="geometry" />
        </mxCell>
        <mxCell id="4x0N71IDLHHbBtDgOK0e-196" style="edgeStyle=orthogonalEdgeStyle;rounded=0;orthogonalLoop=1;jettySize=auto;html=1;entryX=0.488;entryY=1.038;entryDx=0;entryDy=0;entryPerimeter=0;fontColor=#000000;fillColor=#e1d5e7;strokeColor=#9673a6;" edge="1" parent="WIyWlLk6GJQsqaUBKTNV-1" source="4x0N71IDLHHbBtDgOK0e-188" target="4x0N71IDLHHbBtDgOK0e-181">
          <mxGeometry relative="1" as="geometry" />
        </mxCell>
        <mxCell id="4x0N71IDLHHbBtDgOK0e-202" style="edgeStyle=orthogonalEdgeStyle;rounded=0;orthogonalLoop=1;jettySize=auto;html=1;entryX=0.996;entryY=-0.139;entryDx=0;entryDy=0;entryPerimeter=0;fontColor=#6600CC;fillColor=#dae8fc;strokeColor=#6c8ebf;" edge="1" parent="WIyWlLk6GJQsqaUBKTNV-1" source="4x0N71IDLHHbBtDgOK0e-188" target="4x0N71IDLHHbBtDgOK0e-128">
          <mxGeometry relative="1" as="geometry" />
        </mxCell>
        <mxCell id="4x0N71IDLHHbBtDgOK0e-188" value="RandomStrategy" style="swimlane;fontStyle=1;align=center;verticalAlign=top;childLayout=stackLayout;horizontal=1;startSize=26;horizontalStack=0;resizeParent=1;resizeParentMax=0;resizeLast=0;collapsible=1;marginBottom=0;fillColor=#ffe6cc;strokeColor=#d79b00;" vertex="1" parent="WIyWlLk6GJQsqaUBKTNV-1">
          <mxGeometry x="-200" y="-420" width="160" height="80" as="geometry" />
        </mxCell>
        <mxCell id="4x0N71IDLHHbBtDgOK0e-190" value="" style="line;strokeWidth=1;fillColor=none;align=left;verticalAlign=middle;spacingTop=-1;spacingLeft=3;spacingRight=3;rotatable=0;labelPosition=right;points=[];portConstraint=eastwest;strokeColor=inherit;fontColor=#000000;" vertex="1" parent="4x0N71IDLHHbBtDgOK0e-188">
          <mxGeometry y="26" width="160" height="8" as="geometry" />
        </mxCell>
        <mxCell id="4x0N71IDLHHbBtDgOK0e-191" value="All attrs and methods &#xa;inherited" style="text;strokeColor=none;fillColor=none;align=left;verticalAlign=top;spacingLeft=4;spacingRight=4;overflow=hidden;rotatable=0;points=[[0,0.5],[1,0.5]];portConstraint=eastwest;fontColor=#000000;" vertex="1" parent="4x0N71IDLHHbBtDgOK0e-188">
          <mxGeometry y="34" width="160" height="46" as="geometry" />
        </mxCell>
        <mxCell id="4x0N71IDLHHbBtDgOK0e-197" style="edgeStyle=orthogonalEdgeStyle;rounded=0;orthogonalLoop=1;jettySize=auto;html=1;entryX=0.488;entryY=1.038;entryDx=0;entryDy=0;entryPerimeter=0;fontColor=#000000;fillColor=#e1d5e7;strokeColor=#9673a6;" edge="1" parent="WIyWlLk6GJQsqaUBKTNV-1" source="4x0N71IDLHHbBtDgOK0e-192" target="4x0N71IDLHHbBtDgOK0e-181">
          <mxGeometry relative="1" as="geometry" />
        </mxCell>
        <mxCell id="4x0N71IDLHHbBtDgOK0e-203" style="edgeStyle=orthogonalEdgeStyle;rounded=0;orthogonalLoop=1;jettySize=auto;html=1;entryX=0.999;entryY=-0.139;entryDx=0;entryDy=0;entryPerimeter=0;fontColor=#6600CC;fillColor=#dae8fc;strokeColor=#6c8ebf;" edge="1" parent="WIyWlLk6GJQsqaUBKTNV-1" source="4x0N71IDLHHbBtDgOK0e-192" target="4x0N71IDLHHbBtDgOK0e-128">
          <mxGeometry relative="1" as="geometry" />
        </mxCell>
        <mxCell id="4x0N71IDLHHbBtDgOK0e-192" value="HumanStrategy" style="swimlane;fontStyle=1;align=center;verticalAlign=top;childLayout=stackLayout;horizontal=1;startSize=26;horizontalStack=0;resizeParent=1;resizeParentMax=0;resizeLast=0;collapsible=1;marginBottom=0;fillColor=#ffe6cc;strokeColor=#d79b00;" vertex="1" parent="WIyWlLk6GJQsqaUBKTNV-1">
          <mxGeometry x="17" y="-420" width="160" height="80" as="geometry" />
        </mxCell>
        <mxCell id="4x0N71IDLHHbBtDgOK0e-194" value="" style="line;strokeWidth=1;fillColor=none;align=left;verticalAlign=middle;spacingTop=-1;spacingLeft=3;spacingRight=3;rotatable=0;labelPosition=right;points=[];portConstraint=eastwest;strokeColor=inherit;fontColor=#000000;" vertex="1" parent="4x0N71IDLHHbBtDgOK0e-192">
          <mxGeometry y="26" width="160" height="8" as="geometry" />
        </mxCell>
        <mxCell id="4x0N71IDLHHbBtDgOK0e-195" value="All attrs and methods&#xa;inherited" style="text;strokeColor=none;fillColor=none;align=left;verticalAlign=top;spacingLeft=4;spacingRight=4;overflow=hidden;rotatable=0;points=[[0,0.5],[1,0.5]];portConstraint=eastwest;fontColor=#000000;" vertex="1" parent="4x0N71IDLHHbBtDgOK0e-192">
          <mxGeometry y="34" width="160" height="46" as="geometry" />
        </mxCell>
        <mxCell id="4x0N71IDLHHbBtDgOK0e-204" value="contained by" style="text;html=1;align=center;verticalAlign=middle;resizable=0;points=[];autosize=1;strokeColor=none;fillColor=none;fontColor=#000000;" vertex="1" parent="WIyWlLk6GJQsqaUBKTNV-1">
          <mxGeometry x="-430" y="-65" width="90" height="30" as="geometry" />
        </mxCell>
        <mxCell id="4x0N71IDLHHbBtDgOK0e-207" value="utils" style="text;html=1;align=center;verticalAlign=middle;resizable=0;points=[];autosize=1;strokeColor=none;fillColor=none;fontColor=#000000;" vertex="1" parent="WIyWlLk6GJQsqaUBKTNV-1">
          <mxGeometry x="-1347" y="-855" width="40" height="30" as="geometry" />
        </mxCell>
        <mxCell id="4x0N71IDLHHbBtDgOK0e-209" value="pieces" style="text;html=1;align=center;verticalAlign=middle;resizable=0;points=[];autosize=1;strokeColor=none;fillColor=none;fontColor=#000000;" vertex="1" parent="WIyWlLk6GJQsqaUBKTNV-1">
          <mxGeometry x="-1570" y="-574" width="60" height="30" as="geometry" />
        </mxCell>
        <mxCell id="4x0N71IDLHHbBtDgOK0e-211" value="entities" style="text;html=1;align=center;verticalAlign=middle;resizable=0;points=[];autosize=1;strokeColor=none;fillColor=none;fontColor=#000000;" vertex="1" parent="WIyWlLk6GJQsqaUBKTNV-1">
          <mxGeometry x="-1081.5" y="-525" width="60" height="30" as="geometry" />
        </mxCell>
        <mxCell id="4x0N71IDLHHbBtDgOK0e-213" value="strategy" style="text;html=1;align=center;verticalAlign=middle;resizable=0;points=[];autosize=1;strokeColor=none;fillColor=none;fontColor=#000000;" vertex="1" parent="WIyWlLk6GJQsqaUBKTNV-1">
          <mxGeometry x="-241" y="-860" width="70" height="30" as="geometry" />
        </mxCell>
        <mxCell id="4x0N71IDLHHbBtDgOK0e-222" style="edgeStyle=orthogonalEdgeStyle;rounded=0;orthogonalLoop=1;jettySize=auto;html=1;entryX=0.375;entryY=0.989;entryDx=0;entryDy=0;entryPerimeter=0;fontColor=#000000;fillColor=#e1d5e7;strokeColor=#9673a6;" edge="1" parent="WIyWlLk6GJQsqaUBKTNV-1">
          <mxGeometry relative="1" as="geometry">
            <mxPoint x="-155.42000000000007" y="80" as="sourcePoint" />
            <mxPoint x="-827.5" y="-646.2860000000001" as="targetPoint" />
            <Array as="points">
              <mxPoint x="-428" y="80" />
              <mxPoint x="-428" y="-520" />
              <mxPoint x="-828" y="-520" />
            </Array>
          </mxGeometry>
        </mxCell>
        <mxCell id="4x0N71IDLHHbBtDgOK0e-224" style="edgeStyle=orthogonalEdgeStyle;rounded=0;orthogonalLoop=1;jettySize=auto;html=1;fontColor=#000000;fillColor=#e1d5e7;strokeColor=#9673a6;" edge="1" parent="WIyWlLk6GJQsqaUBKTNV-1">
          <mxGeometry relative="1" as="geometry">
            <mxPoint x="-158" y="80.05263157894751" as="sourcePoint" />
            <mxPoint x="-608.9473684210525" y="-724" as="targetPoint" />
            <Array as="points">
              <mxPoint x="-428" y="80" />
              <mxPoint x="-428" y="-520" />
              <mxPoint x="-609" y="-520" />
            </Array>
          </mxGeometry>
        </mxCell>
        <mxCell id="4x0N71IDLHHbBtDgOK0e-225" style="edgeStyle=orthogonalEdgeStyle;rounded=0;orthogonalLoop=1;jettySize=auto;html=1;entryX=0.515;entryY=1.012;entryDx=0;entryDy=0;entryPerimeter=0;fontColor=#000000;fillColor=#e1d5e7;strokeColor=#9673a6;" edge="1" parent="WIyWlLk6GJQsqaUBKTNV-1" source="4x0N71IDLHHbBtDgOK0e-214" target="4x0N71IDLHHbBtDgOK0e-30">
          <mxGeometry relative="1" as="geometry">
            <Array as="points">
              <mxPoint x="-428" y="80" />
            </Array>
          </mxGeometry>
        </mxCell>
        <mxCell id="4x0N71IDLHHbBtDgOK0e-214" value="Board" style="swimlane;fontStyle=1;align=center;verticalAlign=top;childLayout=stackLayout;horizontal=1;startSize=26;horizontalStack=0;resizeParent=1;resizeParentMax=0;resizeLast=0;collapsible=1;marginBottom=0;fillColor=#ffe6cc;strokeColor=#d79b00;" vertex="1" parent="WIyWlLk6GJQsqaUBKTNV-1">
          <mxGeometry x="-157.42" width="250" height="450" as="geometry" />
        </mxCell>
        <mxCell id="4x0N71IDLHHbBtDgOK0e-215" value="+ boardTiles: Stack&lt;Tile&gt;" style="text;strokeColor=none;fillColor=none;align=left;verticalAlign=top;spacingLeft=4;spacingRight=4;overflow=hidden;rotatable=0;points=[[0,0.5],[1,0.5]];portConstraint=eastwest;fontColor=#000000;" vertex="1" parent="4x0N71IDLHHbBtDgOK0e-214">
          <mxGeometry y="26" width="250" height="26" as="geometry" />
        </mxCell>
        <mxCell id="4x0N71IDLHHbBtDgOK0e-232" value="+ discardedTiles: Discard" style="text;strokeColor=none;fillColor=none;align=left;verticalAlign=top;spacingLeft=4;spacingRight=4;overflow=hidden;rotatable=0;points=[[0,0.5],[1,0.5]];portConstraint=eastwest;fontColor=#000000;" vertex="1" parent="4x0N71IDLHHbBtDgOK0e-214">
          <mxGeometry y="52" width="250" height="26" as="geometry" />
        </mxCell>
        <mxCell id="4x0N71IDLHHbBtDgOK0e-233" value="+ boardPlayers: LinkedList&lt;Player&gt;" style="text;strokeColor=none;fillColor=none;align=left;verticalAlign=top;spacingLeft=4;spacingRight=4;overflow=hidden;rotatable=0;points=[[0,0.5],[1,0.5]];portConstraint=eastwest;fontColor=#000000;" vertex="1" parent="4x0N71IDLHHbBtDgOK0e-214">
          <mxGeometry y="78" width="250" height="26" as="geometry" />
        </mxCell>
        <mxCell id="4x0N71IDLHHbBtDgOK0e-235" value="+ currentPlayer: Player" style="text;strokeColor=none;fillColor=none;align=left;verticalAlign=top;spacingLeft=4;spacingRight=4;overflow=hidden;rotatable=0;points=[[0,0.5],[1,0.5]];portConstraint=eastwest;fontColor=#000000;" vertex="1" parent="4x0N71IDLHHbBtDgOK0e-214">
          <mxGeometry y="104" width="250" height="26" as="geometry" />
        </mxCell>
        <mxCell id="4x0N71IDLHHbBtDgOK0e-237" value="+ currentPlayerIndex: int" style="text;strokeColor=none;fillColor=none;align=left;verticalAlign=top;spacingLeft=4;spacingRight=4;overflow=hidden;rotatable=0;points=[[0,0.5],[1,0.5]];portConstraint=eastwest;fontColor=#000000;" vertex="1" parent="4x0N71IDLHHbBtDgOK0e-214">
          <mxGeometry y="130" width="250" height="26" as="geometry" />
        </mxCell>
        <mxCell id="4x0N71IDLHHbBtDgOK0e-238" value="+ POSITIONS: LinkedList" style="text;strokeColor=none;fillColor=none;align=left;verticalAlign=top;spacingLeft=4;spacingRight=4;overflow=hidden;rotatable=0;points=[[0,0.5],[1,0.5]];portConstraint=eastwest;fontColor=#000000;" vertex="1" parent="4x0N71IDLHHbBtDgOK0e-214">
          <mxGeometry y="156" width="250" height="26" as="geometry" />
        </mxCell>
        <mxCell id="4x0N71IDLHHbBtDgOK0e-216" value="" style="line;strokeWidth=1;fillColor=none;align=left;verticalAlign=middle;spacingTop=-1;spacingLeft=3;spacingRight=3;rotatable=0;labelPosition=right;points=[];portConstraint=eastwest;strokeColor=inherit;fontColor=#000000;" vertex="1" parent="4x0N71IDLHHbBtDgOK0e-214">
          <mxGeometry y="182" width="250" height="8" as="geometry" />
        </mxCell>
        <mxCell id="4x0N71IDLHHbBtDgOK0e-217" value="+ resetGame(void): void    " style="text;strokeColor=none;fillColor=none;align=left;verticalAlign=top;spacingLeft=4;spacingRight=4;overflow=hidden;rotatable=0;points=[[0,0.5],[1,0.5]];portConstraint=eastwest;fontColor=#000000;" vertex="1" parent="4x0N71IDLHHbBtDgOK0e-214">
          <mxGeometry y="190" width="250" height="26" as="geometry" />
        </mxCell>
        <mxCell id="4x0N71IDLHHbBtDgOK0e-239" value="+ instantiateBoard(void): void" style="text;strokeColor=none;fillColor=none;align=left;verticalAlign=top;spacingLeft=4;spacingRight=4;overflow=hidden;rotatable=0;points=[[0,0.5],[1,0.5]];portConstraint=eastwest;fontColor=#000000;" vertex="1" parent="4x0N71IDLHHbBtDgOK0e-214">
          <mxGeometry y="216" width="250" height="26" as="geometry" />
        </mxCell>
        <mxCell id="4x0N71IDLHHbBtDgOK0e-240" value="+ instantiatePlayers(void): void" style="text;strokeColor=none;fillColor=none;align=left;verticalAlign=top;spacingLeft=4;spacingRight=4;overflow=hidden;rotatable=0;points=[[0,0.5],[1,0.5]];portConstraint=eastwest;fontColor=#000000;" vertex="1" parent="4x0N71IDLHHbBtDgOK0e-214">
          <mxGeometry y="242" width="250" height="26" as="geometry" />
        </mxCell>
        <mxCell id="4x0N71IDLHHbBtDgOK0e-241" value="+ distributeBoardTile(void): void" style="text;strokeColor=none;fillColor=none;align=left;verticalAlign=top;spacingLeft=4;spacingRight=4;overflow=hidden;rotatable=0;points=[[0,0.5],[1,0.5]];portConstraint=eastwest;fontColor=#000000;" vertex="1" parent="4x0N71IDLHHbBtDgOK0e-214">
          <mxGeometry y="268" width="250" height="26" as="geometry" />
        </mxCell>
        <mxCell id="4x0N71IDLHHbBtDgOK0e-242" value="+ initialDistribution(void): void" style="text;strokeColor=none;fillColor=none;align=left;verticalAlign=top;spacingLeft=4;spacingRight=4;overflow=hidden;rotatable=0;points=[[0,0.5],[1,0.5]];portConstraint=eastwest;fontColor=#000000;" vertex="1" parent="4x0N71IDLHHbBtDgOK0e-214">
          <mxGeometry y="294" width="250" height="26" as="geometry" />
        </mxCell>
        <mxCell id="4x0N71IDLHHbBtDgOK0e-243" value="+ discardToDiscardPile(void): void" style="text;strokeColor=none;fillColor=none;align=left;verticalAlign=top;spacingLeft=4;spacingRight=4;overflow=hidden;rotatable=0;points=[[0,0.5],[1,0.5]];portConstraint=eastwest;fontColor=#000000;" vertex="1" parent="4x0N71IDLHHbBtDgOK0e-214">
          <mxGeometry y="320" width="250" height="26" as="geometry" />
        </mxCell>
        <mxCell id="4x0N71IDLHHbBtDgOK0e-244" value="+ takeFromDiscardPile(void): void" style="text;strokeColor=none;fillColor=none;align=left;verticalAlign=top;spacingLeft=4;spacingRight=4;overflow=hidden;rotatable=0;points=[[0,0.5],[1,0.5]];portConstraint=eastwest;fontColor=#000000;" vertex="1" parent="4x0N71IDLHHbBtDgOK0e-214">
          <mxGeometry y="346" width="250" height="26" as="geometry" />
        </mxCell>
        <mxCell id="4x0N71IDLHHbBtDgOK0e-245" value="+ advancePlayer(void): void" style="text;strokeColor=none;fillColor=none;align=left;verticalAlign=top;spacingLeft=4;spacingRight=4;overflow=hidden;rotatable=0;points=[[0,0.5],[1,0.5]];portConstraint=eastwest;fontColor=#000000;" vertex="1" parent="4x0N71IDLHHbBtDgOK0e-214">
          <mxGeometry y="372" width="250" height="26" as="geometry" />
        </mxCell>
        <mxCell id="4x0N71IDLHHbBtDgOK0e-246" value="+ enforcePlayerAction(void): void" style="text;strokeColor=none;fillColor=none;align=left;verticalAlign=top;spacingLeft=4;spacingRight=4;overflow=hidden;rotatable=0;points=[[0,0.5],[1,0.5]];portConstraint=eastwest;fontColor=#000000;" vertex="1" parent="4x0N71IDLHHbBtDgOK0e-214">
          <mxGeometry y="398" width="250" height="26" as="geometry" />
        </mxCell>
        <mxCell id="4x0N71IDLHHbBtDgOK0e-247" value="+ other interface methods" style="text;strokeColor=none;fillColor=none;align=left;verticalAlign=top;spacingLeft=4;spacingRight=4;overflow=hidden;rotatable=0;points=[[0,0.5],[1,0.5]];portConstraint=eastwest;fontColor=#000000;" vertex="1" parent="4x0N71IDLHHbBtDgOK0e-214">
          <mxGeometry y="424" width="250" height="26" as="geometry" />
        </mxCell>
        <mxCell id="4x0N71IDLHHbBtDgOK0e-223" style="edgeStyle=orthogonalEdgeStyle;rounded=0;orthogonalLoop=1;jettySize=auto;html=1;fontColor=#000000;fillColor=#e1d5e7;strokeColor=#9673a6;entryX=0.204;entryY=1.048;entryDx=0;entryDy=0;entryPerimeter=0;exitX=0.548;exitY=1.077;exitDx=0;exitDy=0;exitPerimeter=0;" edge="1" parent="WIyWlLk6GJQsqaUBKTNV-1" source="4x0N71IDLHHbBtDgOK0e-221">
          <mxGeometry relative="1" as="geometry">
            <mxPoint x="202" y="123" as="sourcePoint" />
            <mxPoint x="-858.2799999999997" y="-644.752" as="targetPoint" />
            <Array as="points">
              <mxPoint x="230" y="500" />
              <mxPoint x="-428" y="500" />
              <mxPoint x="-428" y="-520" />
              <mxPoint x="-858" y="-520" />
            </Array>
          </mxGeometry>
        </mxCell>
        <mxCell id="4x0N71IDLHHbBtDgOK0e-218" value="Discard" style="swimlane;fontStyle=1;align=center;verticalAlign=top;childLayout=stackLayout;horizontal=1;startSize=26;horizontalStack=0;resizeParent=1;resizeParentMax=0;resizeLast=0;collapsible=1;marginBottom=0;fillColor=#ffe6cc;strokeColor=#d79b00;" vertex="1" parent="WIyWlLk6GJQsqaUBKTNV-1">
          <mxGeometry x="120" width="200" height="86" as="geometry" />
        </mxCell>
        <mxCell id="4x0N71IDLHHbBtDgOK0e-219" value="+ discardPile: Stack&lt;Tile&gt;" style="text;strokeColor=none;fillColor=none;align=left;verticalAlign=top;spacingLeft=4;spacingRight=4;overflow=hidden;rotatable=0;points=[[0,0.5],[1,0.5]];portConstraint=eastwest;fontColor=#000000;" vertex="1" parent="4x0N71IDLHHbBtDgOK0e-218">
          <mxGeometry y="26" width="200" height="26" as="geometry" />
        </mxCell>
        <mxCell id="4x0N71IDLHHbBtDgOK0e-220" value="" style="line;strokeWidth=1;fillColor=none;align=left;verticalAlign=middle;spacingTop=-1;spacingLeft=3;spacingRight=3;rotatable=0;labelPosition=right;points=[];portConstraint=eastwest;strokeColor=inherit;fontColor=#000000;" vertex="1" parent="4x0N71IDLHHbBtDgOK0e-218">
          <mxGeometry y="52" width="200" height="8" as="geometry" />
        </mxCell>
        <mxCell id="4x0N71IDLHHbBtDgOK0e-221" value="+ same as Container" style="text;strokeColor=none;fillColor=none;align=left;verticalAlign=top;spacingLeft=4;spacingRight=4;overflow=hidden;rotatable=0;points=[[0,0.5],[1,0.5]];portConstraint=eastwest;fontColor=#000000;" vertex="1" parent="4x0N71IDLHHbBtDgOK0e-218">
          <mxGeometry y="60" width="200" height="26" as="geometry" />
        </mxCell>
        <mxCell id="4x0N71IDLHHbBtDgOK0e-249" value="board" style="text;html=1;align=center;verticalAlign=middle;resizable=0;points=[];autosize=1;strokeColor=none;fillColor=none;fontColor=#000000;" vertex="1" parent="WIyWlLk6GJQsqaUBKTNV-1">
          <mxGeometry x="-207.42" y="-65" width="50" height="30" as="geometry" />
        </mxCell>
      </root>
    </mxGraphModel>
  </diagram>
</mxfile>
